<svg width="50" height="50" viewBox="0 0 50 50" fill="none" xmlns="http://www.w3.org/2000/svg">
<circle cx="25" cy="25" r="25" fill="black"/>
<path d="M0 25C0 38.8065 11.1935 50 25 50C38.8065 50 50 38.8065 50 25C50 11.1935 38.8065 0 25 0C11.1935 0 0 11.1935 0 25ZM25.5589 14.0192C25.7382 14.1971 25.8808 14.4086 25.9784 14.6415C26.076 14.8745 26.1267 15.1244 26.1277 15.377C26.1287 15.6295 26.08 15.8798 25.9842 16.1136C25.8885 16.3473 25.7476 16.5599 25.5697 16.7392L19.2812 23.0769H35.3365C35.8466 23.0769 36.3357 23.2795 36.6964 23.6402C37.057 24.0008 37.2596 24.49 37.2596 25C37.2596 25.51 37.057 25.9992 36.6964 26.3598C36.3357 26.7205 35.8466 26.9231 35.3365 26.9231H19.2812L25.5697 33.2608C25.7476 33.4403 25.8884 33.653 25.9841 33.8869C26.0797 34.1208 26.1284 34.3712 26.1273 34.6239C26.1262 34.8766 26.0753 35.1266 25.9776 35.3596C25.8798 35.5926 25.7372 35.8041 25.5577 35.982C25.3782 36.1599 25.1655 36.3006 24.9316 36.3963C24.6977 36.492 24.4473 36.5406 24.1946 36.5395C23.9419 36.5384 23.692 36.4875 23.4589 36.3898C23.2259 36.2921 23.0144 36.1494 22.8365 35.9699L13.2945 26.3546C12.937 25.9944 12.7364 25.5075 12.7364 25C12.7364 24.4925 12.937 24.0056 13.2945 23.6454L22.8365 14.03C23.0144 13.8504 23.2261 13.7075 23.4592 13.6097C23.6924 13.5119 23.9426 13.461 24.1955 13.46C24.4483 13.459 24.6989 13.5079 24.9329 13.6038C25.1668 13.6998 25.3796 13.841 25.5589 14.0192V14.0192Z" fill="#D9D9D9"/>
</svg>
