<svg width="532" height="156" viewBox="0 0 532 156" fill="none" xmlns="http://www.w3.org/2000/svg">
<path d="M53.888 125.024C47.0613 125.024 40.704 123.872 34.816 121.568C29.0133 119.264 23.9787 116.064 19.712 111.968C15.4453 107.787 12.1173 102.923 9.728 97.376C7.33867 91.8293 6.144 85.7707 6.144 79.2C6.144 72.6293 7.33867 66.5707 9.728 61.024C12.1173 55.4773 15.4453 50.656 19.712 46.56C23.9787 42.3787 29.0133 39.136 34.816 36.832C40.6187 34.528 46.976 33.376 53.888 33.376C60.7147 33.376 66.9867 34.528 72.704 36.832C78.5067 39.0507 83.5413 42.2507 87.808 46.432C92.16 50.528 95.488 55.3493 97.792 60.896C100.181 66.4427 101.376 72.544 101.376 79.2C101.376 85.856 100.181 91.9573 97.792 97.504C95.488 103.051 92.16 107.915 87.808 112.096C83.5413 116.192 78.5067 119.392 72.704 121.696C66.9867 123.915 60.7147 125.024 53.888 125.024ZM53.888 113.632C58.8373 113.632 63.4027 112.779 67.584 111.072C71.8507 109.365 75.52 106.976 78.592 103.904C81.7493 100.747 84.1813 97.0773 85.888 92.896C87.68 88.7147 88.576 84.1493 88.576 79.2C88.576 74.2507 87.68 69.6853 85.888 65.504C84.1813 61.3227 81.7493 57.696 78.592 54.624C75.52 51.4667 71.8507 49.0347 67.584 47.328C63.4027 45.6213 58.8373 44.768 53.888 44.768C48.8533 44.768 44.2027 45.6213 39.936 47.328C35.7547 49.0347 32.0853 51.4667 28.928 54.624C25.7707 57.696 23.296 61.3227 21.504 65.504C19.7973 69.6853 18.944 74.2507 18.944 79.2C18.944 84.1493 19.7973 88.7147 21.504 92.896C23.296 97.0773 25.7707 100.747 28.928 103.904C32.0853 106.976 35.7547 109.365 39.936 111.072C44.2027 112.779 48.8533 113.632 53.888 113.632ZM158.06 125.024C146.284 125.024 137.025 121.653 130.284 114.912C123.543 108.171 120.172 98.3147 120.172 85.344V34.4H132.972V84.832C132.972 94.816 135.148 102.112 139.5 106.72C143.937 111.328 150.167 113.632 158.188 113.632C166.295 113.632 172.524 111.328 176.876 106.72C181.313 102.112 183.532 94.816 183.532 84.832V34.4H195.948V85.344C195.948 98.3147 192.577 108.171 185.836 114.912C179.18 121.653 169.921 125.024 158.06 125.024ZM238.357 124V45.536H207.637V34.4H281.749V45.536H251.029V124H238.357ZM307.21 76.768H353.418V87.776H307.21V76.768ZM308.49 124H295.69V34.4H358.922V45.536H308.49V124ZM376.94 124V34.4H389.74V124H376.94ZM434.357 124V45.536H403.637V34.4H477.749V45.536H447.029V124H434.357Z" fill="black"/>
<path fill-rule="evenodd" clip-rule="evenodd" d="M498.082 39.5059C499.76 40.4933 501.186 41.9198 502.232 43.6567L502.222 43.664H502.23V55.3795L530.71 64.24L531.03 64.24V82.8H518.23V118H495.83V57.2V48.2244L495.808 48.2401V45.5115H489.43V47.472H489.427C489.429 47.5145 489.43 47.5571 489.43 47.6C489.43 47.6903 489.426 47.7797 489.419 47.8682V48.2357L489.373 48.203C489.091 49.682 487.791 50.8 486.23 50.8C484.462 50.8 483.03 49.3673 483.03 47.6C483.03 47.5571 483.031 47.5145 483.032 47.472H483.03V43.6688L483 43.6476C484.047 41.9117 485.474 40.4866 487.154 39.5007C488.833 38.5148 490.711 37.9991 492.618 38C494.526 38.0009 496.404 38.5184 498.082 39.5059Z" fill="black"/>
</svg>
