<svg width="50" height="50" viewBox="0 0 50 50" fill="none" xmlns="http://www.w3.org/2000/svg">
<circle cx="25" cy="25" r="25" fill="black"/>
<path fill-rule="evenodd" clip-rule="evenodd" d="M25 50C38.8071 50 50 38.8071 50 25C50 11.1929 38.8071 0 25 0C11.1929 0 0 11.1929 0 25C0 38.8071 11.1929 50 25 50ZM30.0998 12.6837C31.716 13.3559 33.1832 14.3414 34.4167 15.5833L38.3333 11.6667V23.3333H26.6667L32.0333 17.9667C30.2333 16.15 27.7667 15 25 15C19.4833 15 15 19.4833 15 25C15 30.5167 19.4833 35 25 35C27.0666 35.0001 29.0822 34.3588 30.7689 33.1647C32.4556 31.9706 33.7301 30.2825 34.4167 28.3333H37.8833C36.4 34.0833 31.2167 38.3333 25 38.3333C17.6333 38.3333 11.6833 32.3667 11.6833 25C11.6833 17.6333 17.6333 11.6667 25 11.6667C26.7504 11.6658 28.4837 12.0115 30.0998 12.6837Z" fill="#85E99B"/>
</svg>
