<svg width="20" height="21" viewBox="0 0 20 21" fill="none" xmlns="http://www.w3.org/2000/svg">
<path d="M14.6685 13.3982H13.7423L13.414 13.0816C14.1467 12.2304 14.6822 11.2278 14.9822 10.1454C15.2821 9.06313 15.3392 7.92789 15.1492 6.82096C14.5981 3.56167 11.8782 0.958926 8.59542 0.560308C7.44132 0.414303 6.26912 0.534247 5.1685 0.910962C4.06789 1.28768 3.06805 1.91118 2.24547 2.73375C1.4229 3.55633 0.799395 4.55617 0.422681 5.65679C0.0459662 6.7574 -0.0739778 7.9296 0.0720269 9.0837C0.470645 12.3664 3.07339 15.0864 6.33268 15.6374C7.43961 15.8274 8.57485 15.7704 9.65717 15.4704C10.7395 15.1705 11.7421 14.635 12.5933 13.9023L12.9099 14.2306V15.1568L17.8926 20.1395C18.3733 20.6202 19.1588 20.6202 19.6395 20.1395C20.1202 19.6588 20.1202 18.8733 19.6395 18.3926L14.6685 13.3982ZM7.63405 13.3982C4.71475 13.3982 2.35822 11.0416 2.35822 8.12233C2.35822 5.20304 4.71475 2.8465 7.63405 2.8465C10.5533 2.8465 12.9099 5.20304 12.9099 8.12233C12.9099 11.0416 10.5533 13.3982 7.63405 13.3982Z" fill="black"/>
</svg>
